<svg width="174" height="30" viewBox="0 0 174 30" fill="none" xmlns="http://www.w3.org/2000/svg">
<g clip-path="url(#clip0_1_373)">
<path d="M31.2204 9.22389C32.0133 9.04478 32.9196 8.86568 33.9391 8.75374C34.9586 8.61941 35.9555 8.55225 36.9071 8.55225C37.9946 8.55225 39.0368 8.6418 40.011 8.84329C40.9852 9.0224 41.8235 9.35822 42.5258 9.80598C43.2508 10.2537 43.8172 10.8358 44.225 11.5746C44.6329 12.3134 44.8594 13.209 44.8594 14.2612V25.2314C44.429 25.3657 43.9305 25.5224 43.3415 25.6567C42.7524 25.7911 42.118 25.9254 41.461 26.0373C40.7813 26.1493 40.1016 26.2612 39.3766 26.3284C38.6516 26.4179 37.904 26.4627 37.179 26.4627C36.0235 26.4627 35.004 26.3731 34.075 26.194C33.1461 26.0149 32.3758 25.7015 31.7188 25.2537C31.0844 24.806 30.586 24.2239 30.2235 23.4851C29.8836 22.7463 29.7024 21.8284 29.7024 20.7314C29.7024 19.7239 29.8836 18.8731 30.2461 18.2015C30.6086 17.5299 31.1071 16.9925 31.7415 16.5672C32.3758 16.1642 33.1235 15.8731 33.9844 15.694C34.8454 15.5373 35.7743 15.4478 36.7711 15.4478C37.4055 15.4478 38.0172 15.4702 38.5383 15.5149C39.0821 15.5597 39.5805 15.6269 40.0563 15.7164V14.3731C40.0563 13.4105 39.7618 12.7612 39.15 12.4254C38.5383 12.0896 37.7 11.9328 36.6352 11.9328C35.7969 11.9328 34.9133 12 33.9618 12.1119C33.0102 12.2239 32.1946 12.3806 31.4696 12.5373L31.2204 9.22389ZM40.079 18.6716C39.6711 18.6045 39.2407 18.5373 38.8102 18.4925C38.3571 18.4478 37.9266 18.4254 37.4961 18.4254C36.4766 18.4254 35.6836 18.5821 35.1172 18.9179C34.5508 19.2537 34.279 19.9254 34.279 20.9328C34.279 21.8731 34.5508 22.5224 35.0719 22.8806C35.593 23.2388 36.3633 23.4179 37.3602 23.4179C37.8813 23.4179 38.3797 23.3955 38.8329 23.3284C39.286 23.2612 39.6938 23.194 40.079 23.1045V18.6716Z" fill="white"/>
<path d="M60.9906 12.3806C60.4469 12.2687 59.8578 12.1567 59.2461 12.0896C58.6344 12 58.0227 11.9552 57.4109 11.9552C56.7766 11.9552 56.2102 12.0224 55.7344 12.1791C55.2586 12.3358 54.8508 12.6269 54.5336 13.0299C54.2164 13.4328 53.9672 14.0149 53.8086 14.7314C53.65 15.4478 53.5594 16.3881 53.5594 17.5075C53.5594 18.5149 53.6273 19.3881 53.7633 20.0821C53.8992 20.7985 54.1031 21.3582 54.3977 21.806C54.6922 22.2537 55.1 22.5672 55.6211 22.7687C56.1422 22.9702 56.7766 23.0597 57.5469 23.0597C58.2492 23.0597 58.8836 23.0149 59.4953 22.903C60.107 22.7911 60.6961 22.6567 61.3078 22.5L61.693 25.8358C61.0812 26.0149 60.3336 26.1717 59.4953 26.306C58.657 26.4179 57.8188 26.4851 57.0031 26.4851C55.7117 26.4851 54.5563 26.3284 53.5367 26.0149C52.5172 25.7015 51.6336 25.1866 50.8859 24.4478C50.1383 23.7314 49.5719 22.7911 49.1867 21.6493C48.8016 20.5075 48.5977 19.097 48.5977 17.4627C48.5977 15.7612 48.8016 14.3508 49.232 13.209C49.6398 12.0672 50.2516 11.1716 50.9992 10.4552C51.7695 9.7612 52.6758 9.26866 53.7633 8.97762C54.8281 8.68657 56.0289 8.55225 57.343 8.55225C58.068 8.55225 58.793 8.59702 59.5633 8.68657C60.3336 8.77613 60.968 8.86568 61.4891 8.97762L60.9906 12.3806Z" fill="white"/>
<path d="M70.7101 2.75378C70.7101 3.58214 70.4609 4.209 69.9625 4.63438C69.464 5.05975 68.7617 5.26124 67.8554 5.26124C66.9718 5.26124 66.2695 5.05975 65.771 4.63438C65.2499 4.209 65.0007 3.58214 65.0007 2.75378C65.0007 1.92542 65.2499 1.29855 65.771 0.850791C66.2921 0.425418 66.9718 0.201538 67.8554 0.201538C68.7617 0.201538 69.464 0.425418 69.9625 0.850791C70.4609 1.29855 70.7101 1.92542 70.7101 2.75378ZM70.2796 8.93288V26.0597H65.4765V8.93288H70.2796Z" fill="white"/>
<path d="M83.1031 8.55224C83.5562 8.55224 84.032 8.57462 84.5078 8.6194C85.0062 8.66418 85.482 8.73134 86.0031 8.82089V0.223877H90.8062V25.3881C90.2851 25.5224 89.6734 25.6567 89.0164 25.791C88.3367 25.9254 87.657 26.0373 86.932 26.1269C86.207 26.2164 85.5046 26.306 84.825 26.3507C84.1226 26.4179 83.5109 26.4403 82.9218 26.4403C81.721 26.4403 80.6109 26.2836 79.5914 25.9925C78.5718 25.7015 77.6656 25.1866 76.9179 24.4925C76.1703 23.7761 75.5812 22.8358 75.1507 21.6716C74.7203 20.4851 74.5164 19.0075 74.5164 17.2388C74.5164 15.6269 74.7429 14.2836 75.1734 13.1642C75.6039 12.0448 76.2156 11.1493 77.0085 10.4776C77.7789 9.78358 78.7078 9.29104 79.75 9C80.7695 8.70895 81.9023 8.55224 83.1031 8.55224ZM86.0031 12.2239C85.5726 12.1567 85.1421 12.0895 84.689 12.0224C84.2359 11.9552 83.8281 11.9328 83.4203 11.9328C82.8992 11.9328 82.4007 12 81.925 12.1567C81.4492 12.3134 81.0187 12.5821 80.6789 12.9851C80.3164 13.3881 80.0445 13.9254 79.8179 14.6418C79.614 15.3358 79.5007 16.209 79.5007 17.2836C79.5007 18.4254 79.5687 19.3433 79.7273 20.1045C79.8859 20.8433 80.1125 21.4478 80.407 21.8731C80.7015 22.3209 81.0867 22.6119 81.5171 22.791C81.9476 22.9701 82.4687 23.0597 83.0351 23.0597C83.5335 23.0597 84.032 23.0373 84.5078 23.0149C84.9835 22.9701 85.482 22.903 86.0031 22.791V12.2239Z" fill="white"/>
<path d="M100.911 0.223877V8.93283C102.112 8.66418 103.245 8.55224 104.309 8.55224C105.533 8.55224 106.643 8.70895 107.64 9.02238C108.637 9.33582 109.498 9.82835 110.223 10.5C110.948 11.194 111.491 12.0895 111.899 13.1866C112.284 14.306 112.488 15.6493 112.488 17.2612C112.488 19.0298 112.284 20.5075 111.854 21.694C111.423 22.8806 110.834 23.8209 110.087 24.5149C109.339 25.209 108.456 25.7239 107.413 26.0149C106.394 26.306 105.284 26.4627 104.083 26.4627C103.516 26.4627 102.859 26.4403 102.157 26.3731C101.432 26.306 100.73 26.2388 100.005 26.1493C99.2797 26.0597 98.6 25.9478 97.8977 25.8134C97.218 25.6791 96.6063 25.5448 96.0852 25.4104V0.223877H100.911ZM100.866 22.7463C101.409 22.8582 101.931 22.9478 102.429 22.9925C102.927 23.0373 103.426 23.0597 103.947 23.0597C104.536 23.0597 105.057 22.9701 105.51 22.791C105.941 22.6119 106.326 22.2985 106.62 21.8731C106.915 21.4478 107.141 20.8433 107.277 20.1045C107.413 19.3657 107.481 18.4254 107.481 17.2836C107.481 16.2313 107.391 15.3358 107.232 14.6418C107.073 13.9478 106.824 13.3881 106.53 12.9851C106.235 12.5821 105.85 12.3134 105.42 12.1567C104.966 12 104.491 11.9328 103.97 11.9328C103.471 11.9328 102.95 11.9776 102.384 12.0448C101.84 12.1119 101.319 12.2015 100.843 12.3358V22.7463H100.866Z" fill="white"/>
<path d="M116.907 9.22389C117.7 9.04478 118.606 8.86568 119.625 8.75374C120.645 8.61941 121.642 8.55225 122.593 8.55225C123.681 8.55225 124.723 8.6418 125.697 8.84329C126.671 9.0224 127.51 9.35822 128.212 9.80598C128.937 10.2537 129.504 10.8358 129.911 11.5746C130.319 12.3134 130.546 13.209 130.546 14.2612V25.2314C130.115 25.3657 129.617 25.5224 129.028 25.6567C128.439 25.7911 127.804 25.9254 127.147 26.0373C126.468 26.1493 125.788 26.2612 125.063 26.3284C124.338 26.4179 123.59 26.4627 122.865 26.4627C121.71 26.4627 120.69 26.3731 119.761 26.194C118.832 26.0149 118.062 25.7015 117.405 25.2537C116.771 24.806 116.272 24.2239 115.91 23.4851C115.57 22.7463 115.389 21.8284 115.389 20.7314C115.389 19.7239 115.57 18.8731 115.932 18.2015C116.295 17.5299 116.793 16.9925 117.428 16.5672C118.062 16.1642 118.81 15.8731 119.671 15.694C120.532 15.5373 121.461 15.4478 122.457 15.4478C123.092 15.4478 123.704 15.4702 124.225 15.5149C124.768 15.5597 125.267 15.6269 125.743 15.7164V14.3731C125.743 13.4105 125.448 12.7612 124.836 12.4254C124.225 12.0896 123.386 11.9328 122.321 11.9328C121.483 11.9328 120.6 12 119.648 12.1119C118.696 12.2239 117.881 12.3806 117.156 12.5373L116.907 9.22389ZM125.765 18.6716C125.357 18.6045 124.927 18.5373 124.496 18.4925C124.043 18.4478 123.613 18.4254 123.182 18.4254C122.163 18.4254 121.37 18.5821 120.804 18.9179C120.237 19.2537 119.965 19.9254 119.965 20.9328C119.965 21.8731 120.237 22.5224 120.758 22.8806C121.279 23.2388 122.05 23.4179 123.046 23.4179C123.568 23.4179 124.066 23.3955 124.519 23.3284C124.972 23.2612 125.38 23.194 125.765 23.1045V18.6716Z" fill="white"/>
<path d="M147.334 12.3134C146.699 12.2015 145.997 12.0895 145.249 12.0224C144.502 11.9328 143.686 11.888 142.78 11.888C141.624 11.888 140.763 11.9776 140.197 12.1791C139.63 12.3582 139.336 12.7612 139.336 13.388C139.336 13.7686 139.54 14.1045 139.97 14.3955C140.401 14.6865 140.945 14.9776 141.602 15.291C142.259 15.5821 142.961 15.8955 143.731 16.2537C144.502 16.5895 145.204 16.9925 145.861 17.4851C146.518 17.9552 147.062 18.5149 147.492 19.1865C147.923 19.8582 148.127 20.6418 148.127 21.5597C148.127 22.4552 147.945 23.2164 147.56 23.8433C147.175 24.4701 146.654 24.9851 145.974 25.388C145.295 25.791 144.502 26.0821 143.595 26.2612C142.689 26.4403 141.692 26.5298 140.627 26.5298C139.336 26.5298 138.158 26.4403 137.093 26.2836C136.028 26.1268 135.145 25.9254 134.465 25.7239L134.895 22.4328C135.552 22.6119 136.391 22.791 137.41 22.9254C138.407 23.0597 139.359 23.1268 140.242 23.1268C141.284 23.1268 142.032 23.0149 142.485 22.791C142.938 22.5671 143.142 22.1418 143.142 21.5373C143.142 21.1119 142.938 20.7313 142.508 20.4179C142.077 20.1045 141.556 19.791 140.922 19.4776C140.288 19.1642 139.608 18.8507 138.86 18.5149C138.113 18.1791 137.433 17.7985 136.798 17.3507C136.164 16.903 135.643 16.388 135.212 15.7836C134.782 15.1791 134.578 14.4403 134.578 13.5671C134.578 12.5821 134.782 11.7537 135.212 11.1045C135.62 10.4552 136.209 9.94028 136.934 9.58207C137.659 9.22386 138.52 8.95521 139.54 8.82088C140.537 8.68655 141.624 8.61938 142.802 8.61938C143.777 8.61938 144.683 8.66416 145.521 8.75371C146.359 8.84327 147.084 8.93282 147.696 9.04476L147.334 12.3134Z" fill="white"/>
<path d="M156.034 18.8283C156.056 19.5895 156.169 20.2164 156.328 20.7537C156.509 21.291 156.781 21.7164 157.166 22.0746C157.552 22.4104 158.05 22.6791 158.662 22.8358C159.273 22.9925 160.044 23.082 160.973 23.082C161.358 23.082 161.766 23.0597 162.219 23.0373C162.672 22.9925 163.125 22.9477 163.578 22.8806C164.031 22.8134 164.462 22.7238 164.847 22.6567C165.232 22.5671 165.572 22.5 165.821 22.4328L166.252 25.6791C165.504 25.9253 164.62 26.1044 163.555 26.2612C162.491 26.4179 161.403 26.485 160.27 26.485C158.911 26.485 157.665 26.3507 156.532 26.082C155.399 25.8134 154.425 25.3432 153.587 24.6716C152.771 24 152.114 23.082 151.661 21.9179C151.208 20.7537 150.981 19.2985 150.981 17.5298C150.981 15.8283 151.185 14.3955 151.57 13.2537C151.955 12.0895 152.522 11.1716 153.247 10.5C153.972 9.80593 154.855 9.33578 155.875 9.02235C156.894 8.7313 158.05 8.57458 159.319 8.57458C160.61 8.57458 161.72 8.75369 162.627 9.08951C163.555 9.42533 164.303 9.91787 164.892 10.5671C165.481 11.194 165.912 11.9776 166.184 12.8731C166.455 13.7686 166.591 14.7761 166.591 15.9179V18.8507H156.034V18.8283ZM162.128 16.0298C162.128 14.5522 161.902 13.4328 161.471 12.694C161.018 11.9552 160.27 11.597 159.205 11.597C158.073 11.597 157.302 11.9776 156.849 12.7164C156.396 13.4552 156.147 14.5522 156.102 16.0298H162.128Z" fill="white"/>
<path d="M24.7629 2.32837C26.4621 2.32837 27.8215 3.69404 27.8215 5.35076V12.8508C27.8215 15.7612 25.4199 18.1343 22.4746 18.1343H11.8262V15.112C11.8262 8.05971 17.6035 2.32837 24.7629 2.32837ZM19.0535 13.9925C21.591 13.9925 23.6301 11.9776 23.6301 9.47016C23.6301 7.67912 21.7043 6.49255 20.0957 7.32091C17.6715 8.57464 16.0176 11.0821 16.0176 13.9925H19.0535Z" fill="url(#paint0_linear_1_373)"/>
<path d="M5.34688 13.9926H15.9953V17.0149C15.9953 24.0672 10.1953 29.7985 3.05859 29.7985C1.35938 29.7985 0 28.4329 0 26.7761V19.2761C0.0226563 16.3657 2.40156 13.9926 5.34688 13.9926ZM4.21406 22.6567C4.21406 24.4478 6.13984 25.6343 7.74844 24.806C10.1727 23.5523 11.8266 21.0448 11.8266 18.1343H8.79062C6.25312 18.1343 4.21406 20.1493 4.21406 22.6567Z" fill="url(#paint1_linear_1_373)"/>
<path d="M7.86172 24.7388C6.18516 25.6343 4.16875 24.403 4.21406 22.5224C4.28203 20.3955 5.82266 18.6493 7.86172 18.2239L7.99766 18.2015C8.26953 18.1567 8.51875 18.1343 8.79063 18.1343H11.8266V15.112C11.8266 14.7314 11.8492 14.3732 11.8719 13.9926H5.34688C2.40156 13.9926 0 16.3657 0 19.2761V26.7761C0 28.4329 1.35937 29.7985 3.03594 29.7985C4.73516 29.7985 6.34375 29.4851 7.83906 28.903V24.7388H7.86172Z" fill="url(#paint2_linear_1_373)"/>
<path d="M19.9828 7.38807C21.6594 6.49255 23.6758 7.72389 23.6305 9.60449C23.5625 11.7314 22.0219 13.4776 19.9828 13.903L19.8469 13.9254C19.575 13.9702 19.3258 13.9925 19.0539 13.9925H16.018V17.0149C16.018 17.3955 15.9953 17.7537 15.9727 18.1343H22.4977C25.443 18.1343 27.8445 15.7612 27.8445 12.8508V5.35076C27.8445 3.69404 26.4852 2.32837 24.8086 2.32837C23.1094 2.32837 21.5008 2.6418 20.0055 3.22389V7.38807H19.9828Z" fill="url(#paint3_linear_1_373)"/>
<path d="M169.582 4.99255V5.50748H168.494V8.41793H167.769V5.50748H166.682V4.99255H169.582Z" fill="white"/>
<path d="M170.896 4.99255L172.074 6.73882L173.252 4.99255H174V8.41793H173.275V5.97763L172.346 7.36569H171.802L170.873 5.97763V8.41793H170.148V4.99255H170.896Z" fill="white"/>
</g>
<defs>
<linearGradient id="paint0_linear_1_373" x1="28.5696" y1="4.60694" x2="1.21256" y2="29.2456" gradientUnits="userSpaceOnUse">
<stop offset="0.015315" stop-color="#FBB040"/>
<stop offset="0.4984" stop-color="#FF00D4"/>
<stop offset="1" stop-color="#00DDFF"/>
</linearGradient>
<linearGradient id="paint1_linear_1_373" x1="27.5326" y1="2.66493" x2="0.175495" y2="27.3034" gradientUnits="userSpaceOnUse">
<stop offset="0.015315" stop-color="#FBB040"/>
<stop offset="0.4984" stop-color="#FF00D4"/>
<stop offset="1" stop-color="#00DDFF"/>
</linearGradient>
<linearGradient id="paint2_linear_1_373" x1="4.47828" y1="22.4819" x2="11.6719" y2="12.723" gradientUnits="userSpaceOnUse">
<stop offset="0.015315" stop-color="#0A1027" stop-opacity="0"/>
<stop offset="1" stop-color="#0A1027"/>
</linearGradient>
<linearGradient id="paint3_linear_1_373" x1="23.364" y1="9.64689" x2="16.1702" y2="19.4057" gradientUnits="userSpaceOnUse">
<stop offset="0.015315" stop-color="#0A1027" stop-opacity="0"/>
<stop offset="1" stop-color="#0A1027"/>
</linearGradient>
<clipPath id="clip0_1_373">
<rect width="174" height="30" fill="white"/>
</clipPath>
</defs>
</svg>
